M48
; DRILL file {KiCad 8.0.5} date 2024-12-01T23:02:56-0500
; FORMAT={-:-/ absolute / metric / decimal}
; #@! TF.CreationDate,2024-12-01T23:02:56-05:00
; #@! TF.GenerationSoftware,Kicad,Pcbnew,8.0.5
; #@! TF.FileFunction,MixedPlating,1,2
FMAT,2
METRIC
; #@! TA.AperFunction,Plated,PTH,ViaDrill
T1C0.300
; #@! TA.AperFunction,Plated,PTH,ComponentDrill
T2C0.800
; #@! TA.AperFunction,Plated,PTH,ComponentDrill
T3C0.900
; #@! TA.AperFunction,Plated,PTH,ComponentDrill
T4C1.000
; #@! TA.AperFunction,Plated,PTH,ComponentDrill
T5C1.020
; #@! TA.AperFunction,Plated,PTH,ComponentDrill
T6C1.100
; #@! TA.AperFunction,Plated,PTH,ComponentDrill
T7C1.220
; #@! TA.AperFunction,Plated,PTH,ComponentDrill
T8C1.420
; #@! TA.AperFunction,Plated,PTH,ComponentDrill
T9C1.430
; #@! TA.AperFunction,Plated,PTH,ComponentDrill
T10C1.800
; #@! TA.AperFunction,NonPlated,NPTH,ComponentDrill
T11C0.500
; #@! TA.AperFunction,NonPlated,NPTH,ComponentDrill
T12C1.500
; #@! TA.AperFunction,NonPlated,NPTH,ComponentDrill
T13C1.800
%
G90
G05
T1
X22.098Y-75.692
X32.024Y-79.815
X33.467Y-50.861
X33.528Y-83.312
X34.544Y-83.82
X42.164Y-20.32
X60.198Y-14.224
X64.262Y-56.896
X64.769Y-58.42
X74.375Y-65.532
X75.184Y-66.548
X75.75Y-68.409
T2
X3.5Y-24.0
X3.5Y-31.62
X8.422Y-57.658
X8.422Y-60.96
X8.462Y-74.168
X8.462Y-77.47
X11.042Y-64.262
X11.042Y-67.564
X11.042Y-70.866
X14.986Y-82.804
X14.986Y-90.424
X16.042Y-57.658
X16.042Y-60.96
X16.042Y-64.262
X16.042Y-67.564
X16.042Y-70.866
X16.082Y-74.168
X16.082Y-77.47
X17.526Y-82.804
X17.526Y-90.424
X18.034Y-40.386
X18.034Y-43.688
X18.034Y-48.006
X18.034Y-51.308
X19.09Y-59.944
X19.09Y-62.484
X19.09Y-65.024
X19.09Y-67.564
X19.09Y-70.104
X19.09Y-72.644
X19.09Y-75.184
X20.066Y-79.502
X20.066Y-82.804
X20.066Y-90.424
X20.146Y-93.726
X21.082Y-9.652
X21.082Y-17.272
X22.606Y-82.804
X22.606Y-90.424
X24.384Y-9.652
X24.384Y-17.272
X25.066Y-79.502
X25.146Y-82.804
X25.146Y-90.424
X25.146Y-93.726
X25.654Y-40.386
X25.654Y-43.688
X25.654Y-48.006
X25.654Y-51.308
X26.71Y-59.944
X26.71Y-62.484
X26.71Y-65.024
X26.71Y-67.564
X26.71Y-70.104
X26.71Y-72.644
X26.71Y-75.184
X27.686Y-82.804
X27.686Y-90.424
X29.758Y-57.658
X29.758Y-60.96
X29.758Y-64.262
X29.758Y-67.564
X29.758Y-74.168
X29.758Y-77.47
X29.838Y-70.866
X30.226Y-82.804
X30.226Y-90.424
X34.544Y-33.523
X34.544Y-36.83
X34.544Y-43.18
X34.554Y-46.731
X34.758Y-64.262
X34.758Y-67.564
X34.838Y-70.866
X35.814Y-104.086
X35.854Y-97.536
X37.174Y-40.127
X37.378Y-57.658
X37.378Y-60.96
X37.378Y-74.168
X37.378Y-77.47
X38.314Y-104.086
X38.354Y-97.536
X39.878Y-28.702
X42.164Y-33.523
X42.164Y-36.83
X42.164Y-43.18
X42.174Y-40.127
X42.174Y-46.731
X42.672Y-100.838
X42.672Y-105.838
X42.926Y-60.452
X42.926Y-63.754
X42.926Y-77.216
X42.926Y-80.518
X44.968Y-32.507
X44.968Y-35.047
X44.968Y-37.587
X44.968Y-40.127
X44.968Y-42.667
X44.968Y-45.207
X44.968Y-47.747
X45.212Y-4.318
X45.212Y-6.858
X45.212Y-9.398
X45.212Y-11.938
X45.212Y-14.478
X45.212Y-17.018
X45.212Y-19.558
X45.212Y-22.098
X45.456Y-56.838
X45.466Y-73.66
X46.014Y-100.33
X47.498Y-28.702
X47.996Y-56.838
X48.006Y-73.66
X50.038Y-28.702
X50.536Y-56.838
X50.546Y-60.452
X50.546Y-63.754
X50.546Y-73.66
X50.546Y-77.216
X50.546Y-80.518
X51.014Y-100.33
X52.588Y-32.507
X52.588Y-35.047
X52.588Y-37.587
X52.588Y-40.127
X52.588Y-42.667
X52.588Y-45.207
X52.588Y-47.747
X52.832Y-4.318
X52.832Y-6.858
X52.832Y-9.398
X52.832Y-11.938
X52.832Y-14.478
X52.832Y-17.018
X52.832Y-19.558
X52.832Y-22.098
X54.356Y-60.452
X54.356Y-63.754
X54.356Y-77.216
X54.356Y-80.518
X55.372Y-36.83
X55.382Y-33.523
X55.382Y-43.429
X55.382Y-46.731
X56.388Y-3.89
X56.388Y-8.89
X56.896Y-56.838
X56.896Y-73.66
X57.658Y-28.702
X59.436Y-56.838
X59.436Y-73.66
X61.976Y-56.838
X61.976Y-60.452
X61.976Y-63.754
X61.976Y-73.66
X61.976Y-77.216
X61.976Y-80.518
X62.992Y-36.83
X63.002Y-33.523
X63.002Y-43.429
X63.002Y-46.731
X88.138Y-3.302
X95.758Y-3.302
X97.028Y-67.096
X97.028Y-72.096
X97.79Y-53.34
X97.79Y-60.96
X100.584Y-64.008
X100.584Y-71.628
X101.092Y-53.34
X101.092Y-60.96
X103.124Y-64.008
X103.124Y-71.628
X104.394Y-53.34
X104.394Y-60.96
X105.156Y-3.302
X105.156Y-6.858
X105.664Y-64.008
X105.664Y-71.628
X107.696Y-53.34
X107.696Y-60.96
X108.204Y-64.008
X108.204Y-71.628
X110.744Y-64.008
X110.744Y-71.628
X110.998Y-53.34
X110.998Y-60.96
X112.776Y-3.302
X112.776Y-6.858
X113.284Y-64.008
X113.284Y-71.628
X114.3Y-53.34
X114.3Y-60.96
X115.824Y-64.008
X115.824Y-71.628
X117.602Y-53.34
X117.602Y-60.96
X118.364Y-64.008
X118.364Y-71.628
X120.904Y-53.34
X120.904Y-60.96
X122.179Y-3.302
X129.799Y-3.302
T3
X42.926Y-67.056
X42.926Y-83.82
X50.546Y-67.056
X50.546Y-83.82
X54.356Y-67.056
X54.356Y-83.82
X56.896Y-105.41
X61.976Y-67.056
X61.976Y-83.82
X64.516Y-105.41
X80.264Y-27.178
X80.264Y-49.276
X82.042Y-3.556
X82.804Y-27.178
X82.804Y-49.276
X84.582Y-3.556
X99.06Y-3.556
X101.6Y-3.556
X103.627Y-49.276
X103.632Y-27.178
X106.167Y-49.276
X106.172Y-27.178
X116.498Y-3.556
X119.038Y-3.556
X121.158Y-13.844
X121.158Y-25.711
X121.158Y-37.577
X121.158Y-49.444
X122.231Y-65.024
X123.698Y-13.844
X123.698Y-25.711
X123.698Y-37.577
X123.698Y-49.444
X124.771Y-65.024
X133.096Y-3.556
X135.636Y-3.556
T4
X2.775Y-82.375
X2.775Y-84.915
X2.775Y-87.455
X2.775Y-89.995
X2.775Y-92.535
X2.775Y-95.075
X2.775Y-97.615
X2.775Y-100.155
X2.775Y-102.695
X2.775Y-105.235
X3.75Y-2.775
X3.75Y-5.315
X3.75Y-7.855
X3.75Y-10.395
X3.75Y-12.935
X3.75Y-15.475
X3.75Y-18.015
X3.75Y-20.555
X17.526Y-101.092
X17.526Y-103.632
X20.066Y-101.092
X20.066Y-103.632
X22.606Y-101.092
X22.606Y-103.632
X25.146Y-101.092
X25.146Y-103.632
X27.686Y-101.092
X27.686Y-103.632
X67.0Y-2.775
X67.0Y-5.315
X67.0Y-7.855
X67.0Y-10.395
X67.0Y-12.935
X67.0Y-15.475
X67.0Y-18.015
X67.0Y-20.555
X68.025Y-82.375
X68.025Y-84.915
X68.025Y-87.455
X68.025Y-89.995
X68.025Y-92.535
X68.025Y-95.075
X68.025Y-97.615
X68.025Y-100.155
X68.025Y-102.695
X68.025Y-105.235
X76.115Y-82.375
X76.115Y-84.915
X76.115Y-87.455
X76.115Y-89.995
X76.115Y-92.535
X76.115Y-95.075
X76.115Y-97.615
X76.115Y-100.155
X76.115Y-102.695
X76.115Y-105.235
X77.0Y-2.775
X77.0Y-5.315
X77.0Y-7.855
X77.0Y-10.395
X77.0Y-12.935
X77.0Y-15.475
X77.0Y-18.015
X77.0Y-20.555
X83.098Y-23.322
X83.098Y-45.387
X83.098Y-67.452
X85.598Y-23.322
X85.598Y-45.387
X85.598Y-67.452
X88.098Y-23.322
X88.098Y-45.387
X88.098Y-67.452
X106.426Y-23.322
X106.426Y-45.387
X108.926Y-23.322
X108.926Y-45.387
X111.426Y-23.322
X111.426Y-45.387
X140.5Y-2.775
X140.5Y-5.315
X140.5Y-7.855
X140.5Y-10.395
X140.5Y-12.935
X140.5Y-15.475
X140.5Y-18.015
X140.5Y-20.555
X141.365Y-82.375
X141.365Y-84.915
X141.365Y-87.455
X141.365Y-89.995
X141.365Y-92.535
X141.365Y-95.075
X141.365Y-97.615
X141.365Y-100.155
X141.365Y-102.695
X141.365Y-105.235
T5
X11.107Y-3.426
X11.107Y-5.966
X11.107Y-8.506
X11.107Y-11.046
X11.107Y-13.586
X11.107Y-16.126
X11.107Y-18.666
X11.107Y-21.206
X11.107Y-23.746
X11.107Y-26.286
X11.107Y-28.826
X11.107Y-31.366
X11.107Y-33.906
X11.107Y-36.446
X11.107Y-38.986
X11.107Y-41.526
X11.107Y-44.066
X11.107Y-46.606
X11.107Y-49.146
X11.107Y-51.686
X28.887Y-3.426
X28.887Y-5.966
X28.887Y-8.506
X28.887Y-11.046
X28.887Y-13.586
X28.887Y-16.126
X28.887Y-18.666
X28.887Y-21.206
X28.887Y-23.746
X28.887Y-26.286
X28.887Y-28.826
X28.887Y-31.366
X28.887Y-33.906
X28.887Y-36.446
X28.887Y-38.986
X28.887Y-41.526
X28.887Y-44.066
X28.887Y-46.606
X28.887Y-49.146
X28.887Y-51.686
T6
X47.752Y-105.593
X50.292Y-105.593
X52.832Y-105.593
X130.302Y-11.72
X130.302Y-16.22
X130.302Y-23.501
X130.302Y-28.001
X130.302Y-35.281
X130.302Y-39.781
X130.302Y-47.062
X130.302Y-51.562
X130.302Y-62.738
X130.302Y-67.238
X136.802Y-11.72
X136.802Y-16.22
X136.802Y-23.501
X136.802Y-28.001
X136.802Y-35.281
X136.802Y-39.781
X136.802Y-47.062
X136.802Y-51.562
X136.802Y-62.738
X136.802Y-67.238
T7
X91.44Y-80.772
X91.44Y-91.44
X91.44Y-102.108
X106.839Y-80.772
X106.839Y-91.44
X106.839Y-102.108
X122.239Y-80.772
X122.239Y-91.44
X122.239Y-102.108
X137.638Y-80.772
X137.638Y-91.44
X137.638Y-102.108
T8
X88.34Y-80.772
X88.34Y-91.44
X88.34Y-102.108
X103.739Y-80.772
X103.739Y-91.44
X103.739Y-102.108
X119.139Y-80.772
X119.139Y-91.44
X119.139Y-102.108
X134.538Y-80.772
X134.538Y-91.44
X134.538Y-102.108
T9
X80.04Y-80.772
X80.04Y-91.44
X80.04Y-102.108
X95.439Y-80.772
X95.439Y-91.44
X95.439Y-102.108
X110.839Y-80.772
X110.839Y-91.44
X110.839Y-102.108
X126.238Y-80.772
X126.238Y-91.44
X126.238Y-102.108
T11
X6.058Y-108.188
X6.058Y-110.388
X6.858Y-108.188
X6.858Y-110.388
X7.658Y-108.188
X7.658Y-110.388
X36.284Y-108.188
X36.284Y-110.388
X37.084Y-108.188
X37.084Y-110.388
X37.884Y-108.188
X37.884Y-110.388
X63.678Y-108.188
X63.678Y-110.388
X64.478Y-108.188
X64.478Y-110.388
X65.278Y-108.188
X65.278Y-110.388
X70.975Y-7.825
X70.975Y-8.625
X70.975Y-9.425
X70.975Y-31.701
X70.975Y-32.501
X70.975Y-33.301
X70.975Y-71.833
X70.975Y-72.633
X70.975Y-73.433
X70.975Y-98.757
X70.975Y-99.557
X70.975Y-100.357
X73.175Y-7.825
X73.175Y-8.625
X73.175Y-9.425
X73.175Y-31.701
X73.175Y-32.501
X73.175Y-33.301
X73.175Y-71.833
X73.175Y-72.633
X73.175Y-73.433
X73.175Y-98.757
X73.175Y-99.557
X73.175Y-100.357
T12
X17.572Y-6.586
X22.422Y-6.586
T13
X17.272Y-3.556
X22.722Y-3.556
T10
G00X81.198Y-16.472
M15
G01X81.198Y-16.172
M16
G05
G00X81.198Y-38.537
M15
G01X81.198Y-38.237
M16
G05
G00X81.198Y-60.602
M15
G01X81.198Y-60.302
M16
G05
G00X89.998Y-16.472
M15
G01X89.998Y-16.172
M16
G05
G00X89.998Y-38.537
M15
G01X89.998Y-38.237
M16
G05
G00X89.998Y-60.602
M15
G01X89.998Y-60.302
M16
G05
G00X104.526Y-16.472
M15
G01X104.526Y-16.172
M16
G05
G00X104.526Y-38.537
M15
G01X104.526Y-38.237
M16
G05
G00X113.326Y-16.472
M15
G01X113.326Y-16.172
M16
G05
G00X113.326Y-38.537
M15
G01X113.326Y-38.237
M16
G05
M30
